<?xml version="1.0" encoding="UTF-8" standalone="no"?><!DOCTYPE svg PUBLIC "-//W3C//DTD SVG 1.1//EN" "http://www.w3.org/Graphics/SVG/1.1/DTD/svg11.dtd"><svg width="100%" height="100%" viewBox="0 0 6512 1806" version="1.1" xmlns="http://www.w3.org/2000/svg" xmlns:xlink="http://www.w3.org/1999/xlink" xml:space="preserve" xmlns:serif="http://www.serif.com/" style="fill-rule:evenodd;clip-rule:evenodd;stroke-linejoin:round;stroke-miterlimit:2;"><path d="M277.528,66.414l1208.77,0l928.335,56.224l1537.55,215.523l609.22,18.741l58.021,899.575l-1798.65,-196.782l-1315.14,-74.965l-938.005,9.371l-415.817,-18.741l125.712,-908.946Z" style="fill:url(#_Linear1);"/><path d="M4471.32,383.675l655.555,-105.555l666.667,-0l422.222,105.555l22.222,144.445l-44.444,50l155.556,38.889l116.666,144.444l-5.555,116.667l-116.667,122.222l-88.889,77.778l133.333,144.444l-5.555,133.334l-138.889,111.111l-50,33.333l44.444,122.222l-100,88.889l-238.888,44.445l-250,-38.889l-311.112,-127.778l-288.888,-144.445l-327.778,-100l-227.778,-55.555l-22.222,-905.556" style="fill:#fffaf1;"/><path d="M3804.47,373.913c-24.353,-2.941 -41.736,-25.1 -38.796,-49.453c2.941,-24.352 25.1,-41.736 49.453,-38.795c239.724,28.949 492.486,60.278 734.182,49.034c159.895,-7.438 318.348,-53.37 475.845,-78.88c215.873,-34.965 439.791,-46.293 658.295,-42.69c89.38,1.474 293.504,6.178 433.801,58.359c113.167,42.09 185.446,115.076 165.754,225.543c-9.378,52.606 -30.046,74.599 -57.614,91.728c-18.008,11.188 -41.635,18.439 -69.995,37.501c-20.358,13.684 -47.996,8.265 -61.68,-12.093c-13.684,-20.358 -8.265,-47.995 12.093,-61.679c19.505,-13.111 36.979,-21.49 52.338,-28.788c11.719,-5.569 22.118,-8.56 28.923,-17.775c4.16,-5.633 6.46,-13.47 8.425,-24.494c11.766,-66 -41.617,-101.482 -109.231,-126.63c-130.682,-48.605 -321.025,-51.422 -404.279,-52.795c-213.298,-3.517 -431.889,7.427 -642.618,41.559c-160.8,26.045 -322.677,72.333 -485.926,79.927c-246.555,11.47 -504.427,-20.048 -748.97,-49.579Z" style="fill:#370073;"/><path d="M219.94,148.829c-23.951,5.296 -47.696,-9.849 -52.992,-33.8c-5.297,-23.951 9.849,-47.696 33.8,-52.992c413.504,-91.441 841.752,-61.679 1261.43,-35.711c375.695,23.246 751.452,31.946 1125.35,78.634c520.172,64.952 1227.67,207.178 1751.81,235.916c24.492,1.343 43.287,22.318 41.944,46.811c-1.343,24.493 -22.318,43.288 -46.811,41.945c-525.967,-28.839 -1235.97,-171.289 -1757.95,-236.468c-372.058,-46.459 -745.976,-54.987 -1119.82,-78.119c-411.452,-25.459 -831.343,-55.865 -1236.75,33.784Z" style="fill:url(#_Linear2);"/><path d="M6129.7,633.878c-22.471,9.836 -48.7,-0.423 -58.536,-22.894c-9.835,-22.471 0.423,-48.7 22.895,-58.536c124.332,-54.419 266.121,-0.322 348.032,94.509c85.644,99.154 106.544,238.188 -10.985,341.129c-82.701,72.435 -130.665,108.785 -185.861,128.554c-54.569,19.544 -116.913,22.763 -230.245,24.537c-24.526,0.384 -44.75,-19.217 -45.134,-43.743c-0.384,-24.527 19.216,-44.751 43.743,-45.135c99.157,-1.552 153.92,-2.242 201.665,-19.343c47.119,-16.876 86.666,-49.902 157.265,-111.737c74.439,-65.199 56.526,-153.357 2.283,-216.158c-57.974,-67.119 -157.123,-109.699 -245.122,-71.183Z" style="fill:#370073;"/><path d="M6165.99,1134.77c-24.353,2.941 -46.512,-14.443 -49.452,-38.795c-2.941,-24.353 14.442,-46.512 38.795,-49.452c109.917,-13.274 216.253,56.263 260.661,144.42c32.243,64.006 33.02,136.557 -12.839,196.66c-101.625,133.19 -292.143,199.169 -455.164,177.664c-24.319,-3.208 -41.458,-25.557 -38.25,-49.876c3.208,-24.319 25.557,-41.458 49.875,-38.25c133.297,17.585 289.777,-34.553 372.871,-143.457c23.929,-31.362 20.946,-69.354 4.122,-102.751c-29.187,-57.94 -98.378,-104.887 -170.619,-96.163Z" style="fill:#370073;"/><path d="M6180.24,1560.77c-11.818,-21.495 -3.962,-48.541 17.533,-60.359c21.494,-11.819 48.54,-3.963 60.359,17.532c67.034,121.918 -25.908,208.094 -167.394,250.705c-117.155,35.283 -262.599,42.247 -319.933,33.001c-239.641,-38.643 -438.255,-169.35 -655.498,-268.879c-263.584,-120.76 -552.645,-205.787 -842.041,-230.887c-964.177,-83.628 -1926.78,-200.778 -2894.59,-243.978c-445.509,-19.885 -890.337,15.875 -1335.32,4.904c-24.522,-0.605 -43.94,-21.005 -43.335,-45.527c0.604,-24.522 21.004,-43.94 45.526,-43.335c445.578,10.985 890.997,-24.754 1337.1,-4.842c969.055,43.255 1932.89,160.487 2898.31,244.221c299.454,25.973 598.638,113.676 871.383,238.632c209.948,96.187 401.032,224.591 632.625,261.936c59.966,9.67 230.363,-2.323 336.229,-51.193c32.528,-15.016 59.588,-31.787 67.635,-56.736c4.261,-13.214 0.868,-28.013 -8.579,-45.195Z" style="fill:url(#_Linear3);"/><defs><linearGradient id="_Linear1" x1="0" y1="0" x2="1" y2="0" gradientUnits="userSpaceOnUse" gradientTransform="matrix(4467.61,0,0,1190.06,151.816,661.446)"><stop offset="0" style="stop-color:#fff;stop-opacity:0.18"/><stop offset="0.04" style="stop-color:#fff4db;stop-opacity:0.51"/><stop offset="0.09" style="stop-color:#ffeabc;stop-opacity:0.8"/><stop offset="0.25" style="stop-color:#ffe6b0;stop-opacity:0.91"/><stop offset="0.63" style="stop-color:#ffe4a8;stop-opacity:0.98"/><stop offset="1" style="stop-color:#ffe3a5;stop-opacity:1"/></linearGradient><linearGradient id="_Linear2" x1="0" y1="0" x2="1" y2="0" gradientUnits="userSpaceOnUse" gradientTransform="matrix(4126.55,0,0,340.81,210.344,214.849)"><stop offset="0" style="stop-color:#fff;stop-opacity:0.36"/><stop offset="0.15" style="stop-color:#a68ec1;stop-opacity:0.65"/><stop offset="0.29" style="stop-color:#734d9d;stop-opacity:0.81"/><stop offset="0.45" style="stop-color:#47157e;stop-opacity:0.95"/><stop offset="1" style="stop-color:#370073;stop-opacity:1"/></linearGradient><linearGradient id="_Linear3" x1="0" y1="0" x2="1" y2="0" gradientUnits="userSpaceOnUse" gradientTransform="matrix(6190.63,0,0,753.776,44.4444,1384.25)"><stop offset="0" style="stop-color:#fff;stop-opacity:0.49"/><stop offset="0.13" style="stop-color:#cdbfdc;stop-opacity:0.62"/><stop offset="0.27" style="stop-color:#8867ab;stop-opacity:0.79"/><stop offset="0.44" style="stop-color:#4d1c82;stop-opacity:0.95"/><stop offset="1" style="stop-color:#370073;stop-opacity:1"/></linearGradient></defs></svg>